<?xml version="1.0" encoding="UTF-8" standalone="no"?>
<svg
   xmlns:dc="http://purl.org/dc/elements/1.1/"
   xmlns:cc="http://creativecommons.org/ns#"
   xmlns:rdf="http://www.w3.org/1999/02/22-rdf-syntax-ns#"
   xmlns:svg="http://www.w3.org/2000/svg"
   xmlns="http://www.w3.org/2000/svg"
   xmlns:sodipodi="http://sodipodi.sourceforge.net/DTD/sodipodi-0.dtd"
   xmlns:inkscape="http://www.inkscape.org/namespaces/inkscape"
   height="128"
   width="128"
   version="1.1"
   id="svg5315"
   sodipodi:docname="terminal.svg"
   inkscape:version="0.92.2 2405546, 2018-03-11">
  <metadata
     id="metadata5321">
    <rdf:RDF>
      <cc:Work
         rdf:about="">
        <dc:format>image/svg+xml</dc:format>
        <dc:type
           rdf:resource="http://purl.org/dc/dcmitype/StillImage" />
        <dc:title></dc:title>
      </cc:Work>
    </rdf:RDF>
  </metadata>
  <defs
     id="defs5319">
    <filter
       style="color-interpolation-filters:sRGB;"
       inkscape:label="Greyscale"
       id="filter5868">
      <feColorMatrix
         values="0.21 0.72 0.072 0 0 0.21 0.72 0.072 0 0 0.21 0.72 0.072 0 0 0 0 0 1 0 "
         id="feColorMatrix5866" />
    </filter>
  </defs>
  <sodipodi:namedview
     pagecolor="#ffffff"
     bordercolor="#666666"
     borderopacity="1"
     objecttolerance="10"
     gridtolerance="10"
     guidetolerance="10"
     inkscape:pageopacity="0"
     inkscape:pageshadow="2"
     inkscape:window-width="1918"
     inkscape:window-height="1038"
     id="namedview5317"
     showgrid="false"
     inkscape:zoom="3.4766083"
     inkscape:cx="24.868708"
     inkscape:cy="47.445229"
     inkscape:window-x="0"
     inkscape:window-y="20"
     inkscape:window-maximized="0"
     inkscape:current-layer="svg5315" />
  <g
     transform="matrix(4,0,0,4,16,-4097.6)"
     id="g5313"
     style="filter:url(#filter5868)">
    <path
       d="m 3,1030.4 c -1.1046,0 -2,0.9 -2,2 v 7 2 7 c 0,1.1 0.8954,2 2,2 h 9 9 c 1.105,0 2,-0.9 2,-2 v -7 -2 -7 c 0,-1.1 -0.895,-2 -2,-2 h -9 z"
       id="path5307"
       inkscape:connector-curvature="0"
       style="fill:#2c3e50" />
    <path
       d="M 3,2 C 1.8954,2 1,2.8954 1,4 v 3 3 1 1 1 3 3 c 0,1.105 0.8954,2 2,2 h 9 9 c 1.105,0 2,-0.895 2,-2 V 16 12 10 7 4 C 23,2.8954 22.105,2 21,2 h -9 z"
       transform="translate(0,1028.4)"
       id="path5309"
       inkscape:connector-curvature="0"
       style="fill:#34495e" />
    <path
       d="M 4,5.125 V 6.25 L 7,8 4,9.75 v 1.125 L 9,8 Z M 9,10 v 1 h 5 v -1 z"
       transform="translate(0,1028.4)"
       id="path5311"
       inkscape:connector-curvature="0"
       style="fill:#ecf0f1" />
  </g>
</svg>
